<svg xmlns="http://www.w3.org/2000/svg" fill="none" viewBox="0 0 220 220" class="h-10 w-10"><path fill="#77933C" d="M191.819 164.704V54.714C175.245 33.011 149.116 19 119.703 19 69.609 19 29 59.612 29 109.709c0 50.096 40.609 90.708 90.703 90.708 29.413 0 55.542-14.012 72.116-35.713zM84.846 96.031c4.204 4.502 2.727 4.168 5.13 5.17.94.391 2.429 2.036 4.818 3.681 2.388 1.645 3.015 2.663 10.234 4.685 1.865.523 6.135.954 7.78.641 1.646-.313 5.785-1.517 7.207-2.35 2.271-1.331 3.449-.429 5.09.392.784.392 5.17-.626 6.502-1.253 1.332-.627 7.714-4.661 9.008-6.11 1.292-1.449 7.597-6.383 8.497-7.362.901-.98 2.585-.235 1.371 1.175-1.214 1.41-3.446 2.976-4.464 3.916-1.019.94-10.154 9.598-12.063 10.496-.665.313-3.015 2.78-9.32 2.859-2.793.034-1.88-1.058-3.865-.054-1.221.618-6.11 2.82-9.752 3.055-3.642.235-6.462 1.228-14.502-2.023-3.682-1.487-5.21-2.545-10.849-6.422-3.014-2.073-3.484-2.779-6.226-6.344-2.35-3.055 1.527-8.303 5.404-4.152zm69.633-25.378c-1.472-1.472-4.858-6.54-5.248-9.085-.392-2.545-.863-7.559 1.488-11.867 1.754-3.218 5.861-.812 4.15 2.546-2.114 4.152-1.37 8.969-1.057 10.104.557 2.017 1.664 5.502 3.329 7.754 1.664 2.252 1.314 2.518 0 3.29-1.332.784-3.232 2.917-3.446 3.916-.235 1.097-.76 2.336-1.019.784-.313-1.88.768-4.048 1.92-5.17 1.527-1.488.9-1.253-.117-2.272zm-20.158 8.975c2.938.49 8.223 1.323 14.4 2.225 1.606.236.979 1.803-.236 1.686-6.218-.603-13.04-1.292-15.437-1.659-3.779-.579-14.443-3.55-18.602-5.092-3.49-1.293-14.099-4.601-17.036-5.09-2.937-.49-6.168-1.763-10.378-2.742-4.21-.98-8.126-2.35-10.182-2.448-2.056-.099-10.567-.79-13.935.464-4.68 1.741-3.995 2.703-1.92 5.561 1.2 1.654 2.119 2.867 4.309 4.778 2.154 1.88 6.672 5.792 8.733 6.424 5.757 1.761 10.704 1.106 15.038.469 5.327-.784 5.484 5.56 1.305 6.566-4.11.987-8.726.777-13.523.483-4.798-.293-10.243-3.261-14.255-7.48-5.326-5.6-4.597-5.694-5.483-7.324-1.05-1.929-1.802-2.662-2.272-5.325-.691-3.919 2.428-6.972 4.621-7.833 3.084-1.211 8.694-3.211 21.383 0 14.273 3.613 14.099 3.936 18.016 5.013 3.916 1.076 14.999 4.464 17.231 5.561 1.975.97 15.286 5.272 18.223 5.763zm16.632-35.292c6.558 1.675 10.888 4.621 11.468 5.723.779 1.48-.58 1.405-1.469.685-1.735-1.404-6.473-4.685-16.813-4.763-2.855-.022-7.284 1.292-8.851 2.271-1.567.979-3.603-2.82-.627-3.524 3.979-.943 8.93-2.272 16.292-.392zm17.232-1.488c-.784.077.235.587-4.582.47-1.18-.029-2.623.431-3.799 1.018-1.316.659-5.325-.705-1.959-3.681 1.299-1.147 3.604-3.603 11.28-1.802 1.827.43 2.648 3.636-.94 3.995zm12.102 128.141c-.918 1.277-1.568 1.677-3.564 3.134-1.996 1.454-3.402 2.496-4.074 2.858-1.017.548-6.112 1.98-9.164-1.215-1.684-1.761-5.128-6.406-6.736-9.281-2.036-3.643-4.321-10.834-5.052-13.55-1.253-4.66-1.174-14.177-.94-16.996.235-2.82 1.43-12.631 4.308-17.35 2.82-4.622 5.726-7.526 7.09-8.459 2.232-1.527 1.526-.94-.588-2.584-2.115-1.646-4.7-4.779-6.148-6.815-.972-1.366-1.871-3.807-2.038-4.739-.196-1.096.823-1.919 1.488-.196.582 1.505 1.619 4.216 3.576 6.252 1.959 2.037 5.439 5.011 6.724 5.654 1.411.705.903 1.665-.548 2.624-2.076 1.37-3.368 3.25-4.856 5.052-1.488 1.801-3.485 4.425-4.896 8.811-1.185 3.69-1.801 9.164-1.605 14.138.12 3.053.979 10.496 1.449 12.297.47 1.801 2.428 7.246 3.759 9.087.817 1.128 1.771 1.625 2.624 3.093.98 1.684 4.176 5.68 5.171 6.736 2.505 2.663 3.289 2.389 4.777 1.136a92.162 92.162 0 015.169-3.995c.548-.392 3.016-.157 3.526.392 1.049 1.13 1.644 2.388.548 3.916"></path></svg>